HIERARCHY
ROOT Hips
{
 OFFSET 0.000000 0.000000 0.000000
 CHANNELS 6 Xposition Yposition Zposition Yrotation Xrotation Zrotation
 JOINT Chest
 {
  OFFSET 0.000000 9.581000 -0.001100
  CHANNELS 3 Yrotation Xrotation Zrotation
  JOINT Chest2
  {
   OFFSET 0.000000 9.561100 0.002200
   CHANNELS 3 Yrotation Xrotation Zrotation
   JOINT Chest3
   {
    OFFSET 0.000000 9.521100 0.000000
    CHANNELS 3 Yrotation Xrotation Zrotation
    JOINT Chest4
    {
     OFFSET 0.000000 9.511400 0.000000
     CHANNELS 3 Yrotation Xrotation Zrotation
     JOINT Neck
     {
      OFFSET 0.000000 14.375100 0.000000
      CHANNELS 3 Yrotation Xrotation Zrotation
      JOINT Head
      {
       OFFSET 0.000000 8.901200 0.004600
       CHANNELS 3 Yrotation Xrotation Zrotation
       End Site
       {
        OFFSET 0.000000 16.962200 0.002400
       }
      }
     }
     JOINT RightCollar
     {
      OFFSET -2.920100 9.518800 0.000000
      CHANNELS 3 Yrotation Xrotation Zrotation
      JOINT RightShoulder
      {
       OFFSET -13.664500 0.000000 0.000000
       CHANNELS 3 Yrotation Xrotation Zrotation
       JOINT RightElbow
       {
        OFFSET 0.000000 -29.999200 0.000000
        CHANNELS 3 Yrotation Xrotation Zrotation
        JOINT RightWrist
        {
         OFFSET 0.000000 -24.253600 0.000000
         CHANNELS 3 Yrotation Xrotation Zrotation
         End Site
         {
          OFFSET 0.000000 -17.918900 0.000000
         }
        }
       }
      }
     }
     JOINT LeftCollar
     {
      OFFSET 2.920100 9.518800 0.000000
      CHANNELS 3 Yrotation Xrotation Zrotation
      JOINT LeftShoulder
      {
       OFFSET 13.664500 0.000000 0.000000
       CHANNELS 3 Yrotation Xrotation Zrotation
       JOINT LeftElbow
       {
        OFFSET 0.000000 -29.999200 0.000000
        CHANNELS 3 Yrotation Xrotation Zrotation
        JOINT LeftWrist
        {
         OFFSET 0.000000 -24.253600 0.000000
         CHANNELS 3 Yrotation Xrotation Zrotation
         End Site
         {
          OFFSET 0.000000 -17.918900 0.000000
         }
        }
       }
      }
     }
    }
   }
  }
 }
 JOINT RightHip
 {
  OFFSET -7.797300 0.005300 0.000500
  CHANNELS 3 Yrotation Xrotation Zrotation
  JOINT RightKnee
  {
   OFFSET 0.000000 -40.663400 -0.000500
   CHANNELS 3 Yrotation Xrotation Zrotation
   JOINT RightAnkle
   {
    OFFSET 0.000000 -39.523700 -0.000900
    CHANNELS 3 Yrotation Xrotation Zrotation
    JOINT RightToe
    {
     OFFSET 0.000000 -6.418000 14.485300
     CHANNELS 3 Yrotation Xrotation Zrotation
     End Site
     {
      OFFSET 0.000000 -1.465200 6.326400
     }
    }
   }
  }
 }
 JOINT LeftHip
 {
  OFFSET 7.797300 0.005300 0.000500
  CHANNELS 3 Yrotation Xrotation Zrotation
  JOINT LeftKnee
  {
   OFFSET 0.000000 -40.663400 -0.000500
   CHANNELS 3 Yrotation Xrotation Zrotation
   JOINT LeftAnkle
   {
    OFFSET 0.000000 -39.523700 -0.000900
    CHANNELS 3 Yrotation Xrotation Zrotation
    JOINT LeftToe
    {
     OFFSET 0.000000 -6.418000 14.485300
     CHANNELS 3 Yrotation Xrotation Zrotation
     End Site
     {
      OFFSET 0.000000 -1.465200 6.326400
     }
    }
   }
  }
 }
}
MOTION
Frames: 8
Frame Time: 0.008333
0.000000 86.422400 0.000000 0.000000 -5.767877 0.000000 0.000000 11.653817 0.000000 0.000000 -5.885947 0.000000 0.000000 -0.000000 0.000000 0.000000 -0.000000 0.000000 0.000000 12.528835 0.000000 0.000000 0.711642 0.000000 0.000000 -0.000000 0.000000 0.000000 0.000000 -90.000000 0.000000 -2.309062 0.000000 0.000000 2.309062 0.000000 0.000000 -0.000000 0.000000 0.000000 -0.000000 90.000000 0.000000 -2.309062 0.000000 0.000000 2.309062 0.000000 0.000000 8.520406 0.000000 0.000000 1.905762 0.000000 -0.000000 -4.658285 0.000000 0.000000 -0.000000 0.000000 0.000000 8.520406 0.000000 0.000000 1.905762 0.000000 -0.000000 -4.658285 0.000000 0.000000 -0.000000 0.000000
-15.475978 126.900056 19.409465 -170.457734 -48.856470 -4.531328 0.529011 25.407060 2.040236 0.021651 4.073663 0.310626 0.045927 6.454213 0.500173 0.364341 21.006882 1.677618 1.584533 14.715686 -2.004418 2.116581 -10.198749 -2.445948 -0.758311 1.560500 2.846631 -7.407889 -8.922611 -7.276449 107.034164 -78.003369 -87.567621 25.391400 28.083098 18.911481 -12.974037 -1.868377 -1.390080 -1.305590 -23.675004 21.123246 36.770467 -43.197112 -79.592457 9.123638 -13.326535 -19.358200 -4.897822 -23.665389 1.036902 -9.211541 76.982967 -7.807509 8.913540 -11.729947 0.944880 -0.002874 0.004273 -0.001273 1.299428 -20.859574 -3.753506 50.400347 81.644985 52.971840 6.257731 -13.334039 2.242234 -0.016673 0.007539 -0.007388
-15.474116 126.901887 19.411933 -170.461969 -48.903381 -4.501086 0.517765 25.377597 2.023006 0.025342 4.097127 0.302855 0.038578 6.469195 0.495514 0.369162 20.988661 1.662540 1.814768 14.843000 -1.928854 2.361845 -10.070143 -2.431483 -0.840834 1.449250 2.826760 -7.309489 -8.944968 -7.250394 106.008738 -78.021682 -86.469995 25.365590 28.064260 18.899659 -13.174947 -2.074349 -1.345429 -1.303972 -24.382601 21.832427 35.089219 -42.254806 -76.731879 9.434232 -13.654660 -18.876648 -4.884668 -23.627830 1.016592 -9.244377 76.988401 -7.857538 8.918351 -11.730120 0.955601 -0.002343 0.003984 -0.001038 1.316334 -20.816065 -3.763893 50.322793 81.635728 52.884187 6.244376 -13.316482 2.244868 -0.014605 0.002789 -0.006471
-15.471730 126.903502 19.415117 -170.467511 -48.952384 -4.467750 0.491344 25.369267 1.999302 0.017673 4.074236 0.301877 0.056670 6.537856 0.478669 0.355866 20.953628 1.647619 2.040482 14.965321 -1.855156 2.606602 -9.946221 -2.420889 -0.913358 1.332158 2.800176 -7.200315 -8.973627 -7.226053 104.979451 -78.036072 -85.362632 25.339103 28.048572 18.890201 -13.371208 -2.315899 -1.300064 -1.370024 -25.100706 22.579869 33.590831 -41.209323 -73.922906 9.773353 -14.089662 -18.209001 -4.878356 -23.592981 1.007099 -9.323748 76.996683 -7.964165 8.911878 -11.729914 0.967086 0.000461 0.001350 0.000204 1.333987 -20.766496 -3.774879 50.213668 81.632686 52.765388 6.235892 -13.306801 2.245185 -0.011816 0.002152 -0.005236
-15.469172 126.905124 19.418594 -170.464761 -49.002588 -4.439310 0.449439 25.369132 1.973694 0.011335 4.077143 0.297090 0.064094 6.543632 0.467327 0.269285 20.933290 1.611453 2.323562 15.103743 -1.797609 2.852893 -9.834731 -2.418931 -0.917709 1.238269 2.755614 -7.076219 -9.012225 -7.208645 103.957002 -78.049794 -84.256047 25.320315 28.032843 18.896589 -13.493423 -2.567096 -1.270606 -1.513941 -25.821163 23.358093 32.312286 -40.064215 -71.190991 10.150459 -14.688113 -17.332732 -4.863118 -23.551536 0.982340 -9.339446 77.000783 -7.993088 8.902635 -11.731744 0.977677 -0.002243 0.002686 -0.000994 1.346577 -20.715741 -3.790256 50.120034 81.637429 52.667125 6.234874 -13.304511 2.235890 -0.008490 0.002491 -0.003762
-15.467158 126.905737 19.423038 -170.453653 -49.043905 -4.413444 0.393568 25.379151 1.939165 0.003634 4.080553 0.293328 0.067185 6.540394 0.457300 0.211928 20.949686 1.590397 2.567454 15.185298 -1.751798 3.103002 -9.742907 -2.429308 -0.953005 1.107402 2.704208 -6.937600 -9.068964 -7.203580 102.936000 -78.076478 -83.163896 25.334145 28.008335 18.943434 -13.644523 -2.890086 -1.233453 -1.713322 -26.531992 24.156300 31.273624 -38.814599 -68.586272 10.574343 -15.470906 -16.261660 -4.863431 -23.523796 0.963518 -9.387807 77.008995 -8.066746 8.898750 -11.732254 0.989719 -0.001797 0.002034 -0.000796 1.353244 -20.679779 -3.807038 50.062895 81.631245 52.596661 6.214711 -13.286920 2.246522 -0.008601 -0.000151 -0.003811
-15.466980 126.905868 19.427869 -170.438608 -49.079206 -4.382054 0.317665 25.390267 1.891592 -0.006210 4.084786 0.289554 0.069640 6.537985 0.449170 0.201945 20.969110 1.567764 2.757636 15.237011 -1.698965 3.356166 -9.677861 -2.454153 -1.035532 0.980226 2.666884 -6.788324 -9.148613 -7.218412 101.970226 -78.090932 -82.095178 25.333064 27.999364 18.985547 -13.845879 -3.237808 -1.175596 -1.926490 -27.224461 24.953676 30.508592 -37.450507 -66.200852 11.048914 -16.401827 -15.036402 -4.864347 -23.505178 0.937974 -9.432888 77.019683 -8.138232 8.882267 -11.730925 1.001041 -0.002079 0.001719 -0.000921 1.357562 -20.644437 -3.830594 49.966099 81.596497 52.472674 6.187439 -13.256573 2.260342 -0.013604 -0.001394 -0.006027
-15.465131 126.906325 19.432003 -170.424256 -49.112170 -4.365352 0.235529 25.405657 1.857654 -0.018513 4.089949 0.285852 -0.019739 6.531920 0.456926 0.165952 20.993533 1.511792 3.020672 15.262690 -1.691944 3.610120 -9.646100 -2.495995 -1.025098 0.866289 2.595391 -6.630235 -9.250702 -7.260934 101.107810 -78.097695 -81.091678 25.318004 28.005477 19.023200 -13.945738 -3.596573 -1.139747 -2.126646 -27.898383 25.723993 30.080720 -35.964130 -64.121230 11.584332 -17.405812 -13.743469 -4.886366 -23.487686 0.945424 -9.491556 77.026658 -8.244628 8.868648 -11.728467 1.014213 0.000384 -0.000443 0.000170 1.346893 -20.615672 -3.817865 49.841478 81.604338 52.315624 6.172106 -13.242545 2.255105 -0.005543 -0.001588 -0.002456
